<?xml version="1.0" encoding="utf-8"?>
<!-- Generator: Adobe Illustrator 16.0.0, SVG Export Plug-In . SVG Version: 6.00 Build 0)  -->
<!DOCTYPE svg PUBLIC "-//W3C//DTD SVG 1.1//EN" "http://www.w3.org/Graphics/SVG/1.1/DTD/svg11.dtd">
<svg version="1.1" id="Isolation_Mode" xmlns="http://www.w3.org/2000/svg" xmlns:xlink="http://www.w3.org/1999/xlink" x="0px"
	 y="0px" width="1129.521px" height="500px" viewBox="0 0 1129.521 500" enable-background="new 0 0 1129.521 500"
	 xml:space="preserve">
<g>
	<g>
		<path fill="#FEC30E" d="M206.203,435.771c-80.79,0-146.518-65.728-146.518-146.518c0-80.791,65.728-146.519,146.518-146.519
			s146.518,65.728,146.518,146.519C352.721,370.044,286.993,435.771,206.203,435.771z M206.203,143.487
			c-80.375,0-145.766,65.391-145.766,145.767c0,80.375,65.391,145.766,145.766,145.766s145.766-65.391,145.766-145.766
			C351.969,208.878,286.578,143.487,206.203,143.487z"/>
	</g>
	<g>
		<path fill="#FEC30E" d="M269.53,336.82c-26.437-22.545-50.797-13.07-63.327-5.065c-12.528-8.005-36.89-17.479-63.326,5.065
			c0,0-16.742,17.673-40.933-2.978c0,0,68.042,65.852,104.259,19.827c36.219,46.024,104.26-19.827,104.26-19.827
			C286.272,354.493,269.53,336.82,269.53,336.82z"/>
	</g>
	<g>
		<g>
			<path fill="#FEC30E" d="M367.958,255.078c-0.644,1.068-2.03,1.413-3.098,0.771L163.032,134.354
				c-1.067-0.643-1.412-2.03-0.771-3.098l9.756-16.205c0.644-1.068,2.03-1.413,3.098-0.77l201.828,121.494
				c1.068,0.643,1.411,2.029,0.77,3.097L367.958,255.078z"/>
		</g>
		<g>
			<path fill="#FEC30E" d="M387.397,151.914c0.644-1.067,0.437-2.373-0.463-2.914L247.123,64.839
				c-0.898-0.542-2.148-0.114-2.792,0.954l-41.775,69.398c-0.643,1.067-0.436,2.372,0.464,2.913l139.812,84.162
				c0.898,0.541,2.149,0.114,2.791-0.954L387.397,151.914z"/>
		</g>
	</g>
</g>
</svg>
