<?xml version="1.0" encoding="utf-8"?>
<!-- Generator: Adobe Illustrator 16.0.0, SVG Export Plug-In . SVG Version: 6.00 Build 0)  -->
<!DOCTYPE svg PUBLIC "-//W3C//DTD SVG 1.1//EN" "http://www.w3.org/Graphics/SVG/1.1/DTD/svg11.dtd">
<svg version="1.1" id="Layer_1" xmlns="http://www.w3.org/2000/svg" xmlns:xlink="http://www.w3.org/1999/xlink" x="0px" y="0px"
	 width="1129.521px" height="500px" viewBox="0 0 1129.521 500" enable-background="new 0 0 1129.521 500" xml:space="preserve">
<g>
	<g>
		<g>
			<path fill="#FEC30E" d="M269.53,336.82c-26.437-22.545-50.797-13.07-63.327-5.065c-12.528-8.005-36.89-17.479-63.326,5.065
				c0,0-16.742,17.673-40.933-2.978c0,0,68.042,65.852,104.259,19.827c36.219,46.024,104.26-19.827,104.26-19.827
				C286.272,354.493,269.53,336.82,269.53,336.82z"/>
		</g>
		<g>
			<g>
				<path fill="#FEC30E" d="M367.958,255.078c-0.644,1.068-2.03,1.413-3.098,0.771L163.032,134.354
					c-1.067-0.643-1.412-2.03-0.771-3.098l9.756-16.205c0.644-1.068,2.03-1.413,3.098-0.77l201.828,121.494
					c1.068,0.643,1.411,2.029,0.77,3.097L367.958,255.078z"/>
			</g>
			<g>
				<path fill="#FEC30E" d="M387.397,151.914c0.644-1.067,0.437-2.373-0.463-2.914L247.123,64.839
					c-0.898-0.542-2.148-0.114-2.792,0.954l-41.775,69.398c-0.643,1.067-0.436,2.372,0.464,2.913l139.812,84.162
					c0.898,0.541,2.149,0.114,2.791-0.954L387.397,151.914z"/>
			</g>
		</g>
	</g>
	<g>
		<path fill="#FEC30E" d="M423.469,282.045h29.004v1.099c-3.712,0-6.019,0.758-6.922,2.271c-0.904,1.514-1.354,3.955-1.354,7.324
			v91.771c0,8.74-0.293,15.259-0.879,19.556c-0.586,4.296-1.904,8.067-3.955,11.315c-2.051,3.247-4.761,5.847-8.13,7.801
			c-3.369,1.952-7.3,2.93-11.792,2.93c-4.296,0-8.69-0.758-13.184-2.271l0.146-1.245c1.318,0.439,3.271,0.659,5.859,0.659
			c6.347,0,11.181-2.32,14.502-6.958c3.319-4.64,4.98-12.574,4.98-23.804v-99.315c0-4.442-0.555-7.226-1.663-8.35
			c-1.108-1.123-3.313-1.685-6.613-1.685V282.045z"/>
		<path fill="#FEC30E" d="M516.506,340.271h-31.661l-16.332,40.723c-1.124,2.93-1.685,4.736-1.685,5.42
			c0,1.611,1.195,2.417,3.589,2.417v1.099h-16.04v-1.099c2.146,0,3.95-0.524,5.414-1.574c1.463-1.051,3.073-3.774,4.829-8.172
			l39.104-98.651h1.938l38.466,95.274c0,0.49,0.985,2.8,2.958,6.929c1.973,4.13,4.98,6.194,9.022,6.194v1.099h-25.195v-1.099
			c2.295,0,3.442-0.903,3.442-2.71c0-1.22-0.562-3.174-1.685-5.859c-0.195-0.194-0.366-0.513-0.513-0.952
			c-0.099-0.487-0.172-0.732-0.22-0.732L516.506,340.271z M485.88,337.27h29.179l-14.576-36.768L485.88,337.27z"/>
		<path fill="#FEC30E" d="M595.403,391.614h-1.392l-38.415-94.994c-2.735-6.689-4.98-10.607-6.738-11.755s-3.564-1.722-5.42-1.722
			v-1.099h24.902v1.099c-2.198-0.146-3.297,0.708-3.297,2.563c0,0.732,0.146,1.514,0.439,2.344l33.496,83.032l33.198-83
			c0.439-1.113,0.659-2.01,0.659-2.688c0-1.647-1.261-2.398-3.779-2.252v-1.099h16.187v1.099c-1.124,0-2.308,0.159-3.552,0.477
			c-1.245,0.317-2.527,1.574-3.846,3.771s-2.003,3.369-2.051,3.516L595.403,391.614z"/>
		<path fill="#FEC30E" d="M651.763,283.29v-1.245h67.821v14.868h-1.099c-1.465-5.518-2.698-8.764-3.698-9.741
			c-1.002-0.977-3.455-1.465-7.361-1.465h-35.595v48.413h33.031c3.271,0,5.347-0.305,6.226-0.916
			c0.879-0.61,1.343-1.501,1.392-2.673h1.099v10.18h-1.099c-0.244-1.415-0.818-2.367-1.721-2.855
			c-0.904-0.488-2.576-0.732-5.018-0.732h-33.91v33.324c0,5.03,0.462,8.655,1.389,10.877c0.928,2.222,2.402,3.613,4.426,4.175
			s5.082,0.842,9.179,0.842h19.017c6.046,0,9.91-0.206,11.592-0.618c1.683-0.412,3.108-1.237,4.279-2.474
			c1.169-1.237,2.072-3.941,2.706-8.114h1.099v14.795h-73.754v-1.099c2.49-0.146,4.382-0.621,5.676-1.427
			c1.294-0.805,1.941-2.891,1.941-6.258v-87.098c0-3.952-0.343-6.732-1.025-8.343C657.67,284.096,655.473,283.29,651.763,283.29z"/>
		<path fill="#FEC30E" d="M733.061,283.144v-1.099h30.615c7.764,0,13.378,0.172,16.845,0.514c3.467,0.343,7.02,1.479,10.657,3.408
			c3.637,1.931,6.384,4.545,8.239,7.843s2.783,7.343,2.783,12.131c0,5.474-1.648,10.689-4.944,15.649s-7.948,9.15-13.954,12.57
			l7.617,11.708c1.66,2.928,6.067,9.343,13.222,19.246c7.153,9.904,12.683,15.941,16.59,18.114c3.906,2.173,7.69,3.259,11.353,3.259
			c3.613,0,7.764-1.392,12.451-4.175l0.439,1.465c-5.854,4.786-13.464,7.178-22.83,7.178c-6.243,0-11.609-1.849-16.098-5.545
			s-12.3-13.839-23.436-30.43c-0.098-0.096-0.146-0.193-0.146-0.291l-10.843-16.688l-9.613,0.293h-8.732v41.248
			c0,3.315,0.435,5.692,1.306,7.131c0.869,1.438,2.975,2.157,6.312,2.157v1.099h-27.832v-1.099c3.467-0.146,5.627-0.878,6.481-2.195
			c0.854-1.316,1.282-4,1.282-8.052v-85.706c0-2.781-0.366-5.086-1.099-6.916C738.993,284.133,736.771,283.192,733.061,283.144z
			 M753.275,284.901v50.61h11.301c8.903,0,15.509-2.1,19.814-6.299c4.305-4.199,6.457-9.717,6.457-16.553
			c0-6.64-2.115-12.928-6.348-18.86c-4.232-5.932-11.681-8.898-22.346-8.898H753.275z"/>
		<path fill="#FEC30E" d="M847.83,389.93v-1.099c3.369,0,5.554-0.634,6.555-1.903c1.001-1.268,1.502-3.439,1.502-6.514v-88.268
			c0-3.123-0.392-5.38-1.172-6.771c-0.781-1.39-3.125-2.134-7.031-2.232v-1.099h28.931v1.099c-2.687,0-4.566,0.342-5.64,1.025
			c-1.075,0.685-1.783,1.49-2.124,2.417c-0.343,0.928-0.513,3.028-0.513,6.299v75.731c0,6.495,1.56,11.072,4.681,13.733
			c3.12,2.661,8.46,3.991,16.018,3.991h13.165c6.338,0,10.983-1.563,13.934-4.688c2.95-3.124,4.596-9.009,4.937-17.651h1.099v25.928
			H847.83z"/>
		<path fill="#FEC30E" d="M961.208,282.045v1.099c-1.417-0.146-2.992,0.073-4.725,0.659c-1.733,0.586-2.759,1.439-3.076,2.562
			c-0.318,1.122-0.476,3.782-0.476,7.978v82.778c0,4.49,0.183,7.234,0.549,8.234s1.073,1.83,2.124,2.489
			c1.05,0.659,2.917,0.987,5.604,0.987v1.099h-28.784v-1.099c3.613,0,5.859-0.694,6.738-2.085s1.318-4.55,1.318-9.479v-81.973
			c0-5.124-0.489-8.478-1.465-10.064c-0.978-1.586-3.175-2.28-6.592-2.086v-1.099H961.208z"/>
		<path fill="#FEC30E" d="M1029.123,340.271h-31.661l-16.332,40.723c-1.124,2.93-1.685,4.736-1.685,5.42
			c0,1.611,1.195,2.417,3.589,2.417v1.099h-16.04v-1.099c2.146,0,3.95-0.524,5.414-1.574c1.463-1.051,3.073-3.774,4.829-8.172
			l39.104-98.651h1.938l38.466,95.274c0,0.49,0.985,2.8,2.958,6.929c1.973,4.13,4.98,6.194,9.022,6.194v1.099h-25.195v-1.099
			c2.295,0,3.442-0.903,3.442-2.71c0-1.22-0.562-3.174-1.685-5.859c-0.195-0.194-0.366-0.513-0.513-0.952
			c-0.099-0.487-0.172-0.732-0.22-0.732L1029.123,340.271z M998.497,337.27h29.179l-14.576-36.768L998.497,337.27z"/>
	</g>
	<circle fill="none" stroke="#FEC30E" stroke-width="10" stroke-miterlimit="10" cx="206.204" cy="289.693" r="146.078"/>
</g>
</svg>
